<?xml version="1.0" encoding="utf-8"?><svg xml:space="preserve" viewBox="0 0 100 100" y="0" x="0" xmlns="http://www.w3.org/2000/svg" id="圖層_1" version="1.1" width="200px" height="200px" xmlnsXlink="http://www.w3.org/1999/xlink" style="width:100%;height:100%;background-size:initial;background-repeat-y:initial;background-repeat-x:initial;background-position-y:initial;background-position-x:initial;background-origin:initial;background-image:initial;background-color:rgb(241, 242, 243);background-clip:initial;background-attachment:initial;animation-play-state:paused" ><g class="ldl-scale" style="transform-origin:50% 50%;transform:rotate(0deg) scale(0.8, 0.8);animation-play-state:paused" ><path fill="#66503a" d="M86.515 62.645c-5.793 1.946-11.687 3.434-17.608 4.589-.17.033-.34.059-.51.091.028-.664.019-1.314-.042-1.939-.183-1.804-.629-3.481-1.138-5.116-.152 1.703-.387 3.398-.855 4.947-.232.77-.524 1.501-.886 2.121a4.922 4.922 0 0 1-.402.579c-2.681.448-5.362.81-8.031 1.084-.219-4.78-.45-9.56-.73-14.34a469.02 469.02 0 0 0-.219-3.925c2.048-.766 3.925-1.78 5.647-2.905 2.846-1.871 5.332-4.06 7.647-6.362-2.901 1.495-5.888 2.794-8.904 3.638a25.349 25.349 0 0 1-4.685.873c-.222-3.413-.455-6.826-.665-10.239l-.696-9.46-.352-4.73-.176-2.365-.088-1.182c-.035-.197.051-.394-.223-.591a1.362 1.362 0 0 0-.26-.148c-.103-.049-.198-.099-.357-.148l-.22-.074-.295-.074c-.194-.049-.377-.099-.667-.148-.289.049-.472.099-.667.148l-.295.074-.22.074c-.159.049-.254.099-.357.148a1.362 1.362 0 0 0-.26.148c-.274.197-.188.394-.223.591l-.088 1.182-.176 2.365-.352 4.73-.489 6.642a14.847 14.847 0 0 1-3.752-.246c-2.311-.436-4.657-1.328-6.941-2.372 1.701 1.849 3.536 3.636 5.769 5.134a18.761 18.761 0 0 0 4.591 2.263c-.362 5.653-.768 11.306-1.054 16.958-.119 2.037-.221 4.073-.326 6.11-1.12.053-2.246.052-3.376-.011a11.988 11.988 0 0 1-2.016-5.966 12.993 12.993 0 0 0-.965 4.477c-.016.39-.013.783.003 1.177a30.951 30.951 0 0 1-2.11-.384c-4.391-.957-8.668-2.878-12.617-5.402 3.323 3.299 7.194 6.201 11.649 8.242 2.872 1.33 5.979 2.26 9.179 2.794-.126 2.628-.248 5.256-.363 7.884-.072 1.95-.143 3.9-.212 5.85a89.606 89.606 0 0 1-7.991-.891 12.677 12.677 0 0 1-1.075-1.925 11.988 11.988 0 0 1-1.006-4.133 12.998 12.998 0 0 0-.965 4.477c-.014.349-.009.701.003 1.054-.242-.046-.485-.087-.728-.135-5.943-1.185-11.838-2.94-17.519-5.396 5.025 3.618 10.529 6.678 16.313 9.21a96.39 96.39 0 0 0 12.757 4.538c-.055 2.09-.101 4.181-.123 6.271h12c-.059-5.534-.257-11.069-.461-16.603 4.381-1.406 8.606-3.049 12.758-4.844 5.675-2.474 11.185-5.251 16.42-8.409z" style="fill:rgb(94, 111, 163);animation-play-state:paused" ></path>
<g style="animation-play-state:paused" ><circle fill="#abbd81" r="7.818" cy="65.135" cx="81.114" style="fill:rgb(104, 156, 197);animation-play-state:paused" ></circle>
<path fill="#fff" d="M81.863 64.252c-1.136-.428-1.604-.708-1.604-1.149 0-.375.281-.749 1.15-.749.477 0 .869.076 1.185.17a.767.767 0 0 0 .955-.552.775.775 0 0 0-.562-.942 5.767 5.767 0 0 0-1.204-.172v-.521a.655.655 0 1 0-1.31 0v.615c-1.43.281-2.259 1.203-2.259 2.38 0 1.297.976 1.965 2.406 2.446.989.334 1.417.655 1.417 1.163 0 .535-.521.829-1.283.829a4.512 4.512 0 0 1-1.446-.248.764.764 0 0 0-.995.523l-.016.063c-.101.393.118.8.503.926.465.153 1.03.261 1.605.287v.615a.655.655 0 1 0 1.31 0v-.709c1.537-.267 2.38-1.283 2.38-2.473.001-1.205-.641-1.94-2.232-2.502z" style="fill:rgb(147, 219, 233);animation-play-state:paused" ></path></g>
<g style="animation-play-state:paused" ><path fill="#abbd81" d="M27.037 38.196c-6.234 0-11.305 5.071-11.305 11.305s5.071 11.306 11.305 11.306 11.306-5.072 11.306-11.306c-.001-6.233-5.072-11.305-11.306-11.305z" style="fill:rgb(104, 156, 197);animation-play-state:paused" ></path>
<path fill="#fff" d="M28.119 48.225c-1.643-.618-2.32-1.024-2.32-1.662 0-.542.406-1.083 1.663-1.083.69 0 1.257.109 1.714.246.6.179 1.225-.193 1.381-.799a1.123 1.123 0 0 0-.812-1.363 8.266 8.266 0 0 0-1.741-.249v-.754a.947.947 0 0 0-1.894 0v.889c-2.069.406-3.268 1.74-3.268 3.441 0 1.875 1.411 2.842 3.48 3.538 1.431.484 2.049.948 2.049 1.682 0 .774-.754 1.198-1.856 1.198a6.51 6.51 0 0 1-2.091-.359 1.105 1.105 0 0 0-1.439.757l-.023.091c-.146.569.17 1.156.728 1.339a8.88 8.88 0 0 0 2.322.415v.89c0 .523.424.947.947.947h.001a.947.947 0 0 0 .947-.947v-1.025c2.223-.387 3.441-1.856 3.441-3.577 0-1.739-.928-2.802-3.229-3.615z" style="fill:rgb(147, 219, 233);animation-play-state:paused" ></path></g>
<g style="animation-play-state:paused" ><path fill="#abbd81" d="M71.806 28.887c-5.133 0-9.309 4.176-9.309 9.309 0 5.133 4.176 9.309 9.309 9.309 5.133 0 9.309-4.176 9.309-9.309 0-5.133-4.177-9.309-9.309-9.309z" style="fill:rgb(104, 156, 197);animation-play-state:paused" ></path>
<path fill="#fff" d="M72.697 37.145c-1.353-.509-1.91-.843-1.91-1.369 0-.446.334-.892 1.369-.892.568 0 1.035.09 1.411.202a.914.914 0 0 0 1.137-.658.924.924 0 0 0-.669-1.122 6.82 6.82 0 0 0-1.434-.205v-.621a.78.78 0 1 0-1.56 0v.732c-1.703.334-2.69 1.432-2.69 2.833 0 1.544 1.162 2.34 2.865 2.913 1.178.398 1.687.78 1.687 1.385 0 .637-.621.987-1.528.987-.621 0-1.207-.12-1.722-.296a.91.91 0 0 0-1.185.623l-.019.075a.92.92 0 0 0 .599 1.103 7.337 7.337 0 0 0 1.912.342v.732a.78.78 0 1 0 1.56 0v-.844c1.83-.318 2.833-1.528 2.833-2.945.003-1.43-.762-2.306-2.656-2.975z" style="fill:rgb(147, 219, 233);animation-play-state:paused" ></path></g>
<g style="animation-play-state:paused" ><circle fill="#abbd81" r="7.818" cy="73.407" cx="18.885" style="fill:rgb(104, 156, 197);animation-play-state:paused" ></circle>
<path fill="#fff" d="M19.634 72.524c-1.136-.428-1.604-.708-1.604-1.149 0-.375.281-.749 1.15-.749.477 0 .869.076 1.185.17a.767.767 0 0 0 .955-.552.775.775 0 0 0-.562-.942 5.767 5.767 0 0 0-1.204-.172v-.521a.655.655 0 1 0-1.31 0v.615c-1.43.281-2.259 1.203-2.259 2.38 0 1.297.976 1.965 2.406 2.446.989.334 1.417.655 1.417 1.163 0 .535-.521.829-1.283.829a4.512 4.512 0 0 1-1.446-.248.763.763 0 0 0-.995.523l-.016.063c-.101.393.118.8.503.926.465.153 1.03.261 1.605.287v.615a.655.655 0 1 0 1.31 0v-.709c1.537-.267 2.38-1.283 2.38-2.473.001-1.205-.641-1.94-2.232-2.502z" style="fill:rgb(147, 219, 233);animation-play-state:paused" ></path></g>
<g style="animation-play-state:paused" ><path fill="#abbd81" d="M51.534 7.5c-5.431 0-9.849 4.418-9.849 9.849s4.418 9.849 9.849 9.849 9.849-4.418 9.849-9.849c.001-5.431-4.418-9.849-9.849-9.849z" style="fill:rgb(104, 156, 197);animation-play-state:paused" ></path>
<path fill="#fff" d="M52.478 16.237c-1.431-.539-2.021-.892-2.021-1.448 0-.472.354-.944 1.448-.944.601 0 1.095.095 1.493.214a.967.967 0 0 0 1.203-.696.978.978 0 0 0-.708-1.187 7.184 7.184 0 0 0-1.517-.217v-.657a.825.825 0 1 0-1.65 0v.774c-1.802.354-2.847 1.516-2.847 2.998 0 1.633 1.23 2.476 3.032 3.082 1.246.421 1.785.826 1.785 1.465 0 .674-.657 1.044-1.617 1.044a5.653 5.653 0 0 1-1.821-.313.961.961 0 0 0-1.253.659l-.02.079a.973.973 0 0 0 .634 1.167 7.752 7.752 0 0 0 2.023.361v.775a.825.825 0 1 0 1.65 0V22.5c1.936-.337 2.998-1.617 2.998-3.116 0-1.513-.808-2.439-2.812-3.147z" style="fill:rgb(147, 219, 233);animation-play-state:paused" ></path></g>
<metadata xmlnsXlink="https://loading.io/stock/" style="animation-play-state:paused" ><d:name style="animation-play-state:paused" >growth</d:name>
<d:tags style="animation-play-state:paused" >tree,enterprise,entrepreneur,money,earn,profit,growth,business</d:tags>
<d:license style="animation-play-state:paused" >pro</d:license>
<d:slug style="animation-play-state:paused" >95rbzs</d:slug></metadata></g><!-- generated by https://loading.io/ --></svg>