<?xml version="1.0" standalone="no"?><svg xmlns="http://www.w3.org/2000/svg" viewBox="0 0 1440 320"><path fill="#000b76" fill-opacity="1" d="M0,32L21.8,58.7C43.6,85,87,139,131,160C174.5,181,218,171,262,176C305.5,181,349,203,393,176C436.4,149,480,75,524,69.3C567.3,64,611,128,655,128C698.2,128,742,64,785,80C829.1,96,873,192,916,192C960,192,1004,96,1047,64C1090.9,32,1135,64,1178,112C1221.8,160,1265,224,1309,240C1352.7,256,1396,224,1418,208L1440,192L1440,320L1418.2,320C1396.4,320,1353,320,1309,320C1265.5,320,1222,320,1178,320C1134.5,320,1091,320,1047,320C1003.6,320,960,320,916,320C872.7,320,829,320,785,320C741.8,320,698,320,655,320C610.9,320,567,320,524,320C480,320,436,320,393,320C349.1,320,305,320,262,320C218.2,320,175,320,131,320C87.3,320,44,320,22,320L0,320Z"></path></svg>